<?xml version="1.0" standalone="no"?>
<!DOCTYPE svg PUBLIC "-//W3C//DTD SVG 20010904//EN"
 "http://www.w3.org/TR/2001/REC-SVG-20010904/DTD/svg10.dtd">
<svg version="1.0" xmlns="http://www.w3.org/2000/svg"
 width="256.000000pt" height="256.000000pt" viewBox="0 0 256.000000 256.000000"
 preserveAspectRatio="xMidYMid meet">

<g transform="translate(0.000000,256.000000) scale(0.100000,-0.100000)"
fill="#000000" stroke="none">
<path d="M1138 2525 c-502 -95 -785 -590 -618 -1081 38 -111 114 -254 245
-459 129 -203 204 -336 381 -675 103 -196 135 -250 140 -235 25 69 136 300
200 419 115 211 190 332 333 536 211 300 249 396 258 646 7 189 -8 267 -77
409 -78 159 -195 279 -352 360 -155 81 -348 111 -510 80z m322 -31 c151 -34
331 -151 425 -276 66 -88 139 -238 115 -238 -5 0 -11 9 -15 20 -13 40 -106
171 -163 228 -69 69 -181 141 -275 177 l-68 25 37 -37 c20 -21 51 -67 68 -103
28 -60 31 -73 31 -165 -1 -81 -5 -109 -22 -147 l-22 -48 -64 49 c-171 129
-405 98 -528 -71 l-27 -39 -23 32 c-91 129 -92 329 -2 447 l27 37 -49 -29
c-137 -79 -235 -178 -310 -311 -26 -47 -50 -84 -52 -82 -7 8 39 120 75 181 46
79 189 221 272 269 160 93 378 124 570 81z m-415 -1071 c143 -127 383 -109
509 39 38 44 45 44 22 -1 -21 -40 -101 -110 -154 -134 -38 -17 -66 -22 -142
-22 -82 0 -103 4 -150 26 -73 34 -125 80 -161 143 -37 65 -37 80 -1 30 16 -22
50 -58 77 -81z"/>
</g>
</svg>
